<svg width="243" height="36" viewBox="0 0 243 36" fill="none" xmlns="http://www.w3.org/2000/svg">
<path d="M231.64 2.36496H225.795L223.296 2.68029L221.768 4.36204L221.404 6.56934V19.9182L221.768 22.1255L223.345 23.781L225.795 24.0964H231.64L234.478 23.7285L233.872 20.8905L231.592 21.3109H225.94L224.339 21.0482L224 19.4715V6.83212L224.242 5.38686L225.94 5.09781H231.495L233.993 5.54453L234.478 2.73285L231.64 2.36496ZM231.956 0C233.589 0 235.068 0.262774 236.394 0.788321C237.72 1.31387 238.844 2.03212 239.766 2.94307C240.704 3.85401 241.424 4.92263 241.925 6.14891C242.426 7.35766 242.677 8.64526 242.677 10.0117V25.9883C242.677 27.3547 242.426 28.6511 241.925 29.8774C241.424 31.0861 240.704 32.146 239.766 33.0569C238.844 33.9679 237.72 34.6861 236.394 35.2117C235.068 35.7372 233.589 36 231.956 36H224.485C222.851 36 221.372 35.7372 220.046 35.2117C218.72 34.6861 217.588 33.9679 216.65 33.0569C215.728 32.146 215.017 31.0861 214.516 29.8774C214.014 28.6511 213.764 27.3547 213.764 25.9883V10.0117C213.764 8.64526 214.014 7.35766 214.516 6.14891C215.017 4.92263 215.728 3.85401 216.65 2.94307C217.588 2.03212 218.72 1.31387 220.046 0.788321C221.372 0.262774 222.851 0 224.485 0H231.956Z" fill="white"/>
<path d="M212.716 6.56934L212.376 4.36204L210.824 2.68029L208.35 2.36496H202.286L197.92 3.0219V24.0964H200.491V5.43942L202.383 5.09781H208.204L209.878 5.38686L210.12 6.93723V24.0964H212.716V6.56934ZM208.204 0C209.837 0 211.317 0.262774 212.643 0.788321C213.969 1.31387 215.093 2.03212 216.015 2.94307C216.952 3.85401 217.672 4.92263 218.173 6.14891C218.675 7.35766 218.925 8.64526 218.925 10.0117V25.9883C218.925 27.3547 218.675 28.6511 218.173 29.8774C217.672 31.0861 216.952 32.146 216.015 33.0569C215.093 33.9679 213.969 34.6861 212.643 35.2117C211.317 35.7372 209.837 36 208.204 36H200.733C199.1 36 197.62 35.7372 196.294 35.2117C194.968 34.6861 193.836 33.9679 192.899 33.0569C191.977 32.146 191.265 31.0861 190.764 29.8774C190.263 28.6511 190.012 27.3547 190.012 25.9883V10.0117C190.012 8.64526 190.263 7.35766 190.764 6.14891C191.265 4.92263 191.977 3.85401 192.899 2.94307C193.836 2.03212 194.968 1.31387 196.294 0.788321C197.62 0.262774 199.1 0 200.733 0H208.204Z" fill="white"/>
<path d="M177.491 2.36496H174.459L180.523 17.9737V24.0964H183.094V18.0263L189.255 2.36496H186.223L181.809 14.1635L177.491 2.36496ZM184.453 0C186.086 0 187.565 0.262774 188.891 0.788321C190.217 1.31387 191.341 2.03212 192.263 2.94307C193.201 3.85401 193.921 4.92263 194.422 6.14891C194.923 7.35766 195.174 8.64526 195.174 10.0117V25.9883C195.174 27.3547 194.923 28.6511 194.422 29.8774C193.921 31.0861 193.201 32.146 192.263 33.0569C191.341 33.9679 190.217 34.6861 188.891 35.2117C187.565 35.7372 186.086 36 184.453 36H176.982C175.348 36 173.869 35.7372 172.543 35.2117C171.217 34.6861 170.085 33.9679 169.147 33.0569C168.225 32.146 167.514 31.0861 167.012 29.8774C166.511 28.6511 166.261 27.3547 166.261 25.9883V10.0117C166.261 8.64526 166.511 7.35766 167.012 6.14891C167.514 4.92263 168.225 3.85401 169.147 2.94307C170.085 2.03212 171.217 1.31387 172.543 0.788321C173.869 0.262774 175.348 0 176.982 0H184.453Z" fill="white"/>
<path d="M160.701 0C162.334 0 163.814 0.262774 165.14 0.788321C166.466 1.31387 167.59 2.03212 168.512 2.94307C169.449 3.85401 170.169 4.92263 170.67 6.14891C171.172 7.35766 171.422 8.64526 171.422 10.0117V25.9883C171.422 27.3547 171.172 28.6511 170.67 29.8774C170.169 31.0861 169.449 32.146 168.512 33.0569C167.59 33.9679 166.466 34.6861 165.14 35.2117C163.814 35.7372 162.334 36 160.701 36H153.23C151.597 36 150.117 35.7372 148.791 35.2117C147.465 34.6861 146.333 33.9679 145.396 33.0569C144.474 32.146 143.762 31.0861 143.261 29.8774C142.76 28.6511 142.509 27.3547 142.509 25.9883V10.0117C142.509 8.64526 142.76 7.35766 143.261 6.14891C143.762 4.92263 144.474 3.85401 145.396 2.94307C146.333 2.03212 147.465 1.31387 148.791 0.788321C150.117 0.262774 151.597 0 153.23 0H160.701ZM165.261 15.8715L164.922 13.6117L163.369 11.9562L160.847 11.6672H155.413L153.934 11.3518C153.853 11.054 153.796 10.7912 153.764 10.5635C153.732 10.3182 153.675 10.0642 153.594 9.80146V7.04234L153.934 5.49197L155.535 5.15037H161.696L163.976 5.64964L164.558 2.7854L161.744 2.36496H155.365L152.939 2.73285L151.363 4.4146L151.047 6.6219V10.2219L151.363 12.4292L152.939 14.0847L155.365 14.4263H160.847L162.326 14.6891C162.375 14.9518 162.431 15.1971 162.496 15.4248C162.561 15.6526 162.617 15.8891 162.666 16.1343V19.5766C162.633 19.8044 162.577 20.0496 162.496 20.3124C162.431 20.5752 162.375 20.8204 162.326 21.0482L160.75 21.3109H154.734L152.357 20.8905L151.751 23.7285L154.589 24.0964H160.895L163.369 23.781L164.922 22.1255L165.261 19.8657V15.8715Z" fill="white"/>
<path d="M139.763 21.3109H132.317V2.36496H129.746V24.0964H139.763V21.3109ZM136.95 0C138.583 0 140.062 0.262774 141.388 0.788321C142.714 1.31387 143.838 2.03212 144.76 2.94307C145.698 3.85401 146.418 4.92263 146.919 6.14891C147.42 7.35766 147.671 8.64526 147.671 10.0117V25.9883C147.671 27.3547 147.42 28.6511 146.919 29.8774C146.418 31.0861 145.698 32.146 144.76 33.0569C143.838 33.9679 142.714 34.6861 141.388 35.2117C140.062 35.7372 138.583 36 136.95 36H129.479C127.845 36 126.366 35.7372 125.04 35.2117C123.714 34.6861 122.582 33.9679 121.644 33.0569C120.722 32.146 120.011 31.0861 119.509 29.8774C119.008 28.6511 118.758 27.3547 118.758 25.9883V10.0117C118.758 8.64526 119.008 7.35766 119.509 6.14891C120.011 4.92263 120.722 3.85401 121.644 2.94307C122.582 2.03212 123.714 1.31387 125.04 0.788321C126.366 0.262774 127.845 0 129.479 0H136.95Z" fill="white"/>
<path d="M116.182 24.0701V4.36204L114.532 2.68029L112.107 2.36496H106.576L103.738 2.73285L104.345 5.59708L106.625 5.09781H112.034L113.489 5.43942L113.829 6.83212V12.9547L112.107 12.6394H106.576L104.151 13.0336L102.598 14.6891L102.259 16.8438V19.9182L102.598 22.1255L104.151 23.781L106.576 24.0964H111.888L113.78 23.781L116.182 24.0701ZM113.829 21.0482L111.937 21.3109H106.722L105.194 21.0482L104.854 19.4715V17.2117L105.048 15.7139L106.722 15.4511H111.985L113.829 15.6613V21.0482ZM113.198 0C114.831 0 116.311 0.262774 117.637 0.788321C118.963 1.31387 120.087 2.03212 121.009 2.94307C121.946 3.85401 122.666 4.92263 123.167 6.14891C123.669 7.35766 123.919 8.64526 123.919 10.0117V25.9883C123.919 27.3547 123.669 28.6511 123.167 29.8774C122.666 31.0861 121.946 32.146 121.009 33.0569C120.087 33.9679 118.963 34.6861 117.637 35.2117C116.311 35.7372 114.831 36 113.198 36H105.727C104.094 36 102.614 35.7372 101.288 35.2117C99.9624 34.6861 98.8304 33.9679 97.8925 33.0569C96.9708 32.146 96.2593 31.0861 95.758 29.8774C95.2567 28.6511 95.006 27.3547 95.006 25.9883V10.0117C95.006 8.64526 95.2567 7.35766 95.758 6.14891C96.2593 4.92263 96.9708 3.85401 97.8925 2.94307C98.8304 2.03212 99.9624 1.31387 101.288 0.788321C102.614 0.262774 104.094 0 105.727 0H113.198Z" fill="white"/>
<path d="M80.0352 21.3109V24.0964H94.0552V21.3109H88.355V5.15037H94.0552V2.36496H80.0352V5.15037H85.7596V21.3109H80.0352ZM89.4466 0C91.0798 0 92.5594 0.262774 93.8854 0.788321C95.2114 1.31387 96.3353 2.03212 97.257 2.94307C98.1949 3.85401 98.9145 4.92263 99.4158 6.14891C99.9171 7.35766 100.168 8.64526 100.168 10.0117V25.9883C100.168 27.3547 99.9171 28.6511 99.4158 29.8774C98.9145 31.0861 98.1949 32.146 97.257 33.0569C96.3353 33.9679 95.2114 34.6861 93.8854 35.2117C92.5594 35.7372 91.0798 36 89.4466 36H81.9757C80.3425 36 78.8628 35.7372 77.5368 35.2117C76.2109 34.6861 75.0789 33.9679 74.141 33.0569C73.2193 32.146 72.5078 31.0861 72.0065 29.8774C71.5052 28.6511 71.2545 27.3547 71.2545 25.9883V10.0117C71.2545 8.64526 71.5052 7.35766 72.0065 6.14891C72.5078 4.92263 73.2193 3.85401 74.141 2.94307C75.0789 2.03212 76.2109 1.31387 77.5368 0.788321C78.8628 0.262774 80.3425 0 81.9757 0H89.4466Z" fill="white"/>
<path d="M65.3797 2.36496H59.534L57.0356 2.68029L55.5075 4.36204L55.1437 6.56934V19.9182L55.5075 22.1255L57.0841 23.781L59.534 24.0964H65.3797L68.2177 23.7285L67.6113 20.8905L65.3312 21.3109H59.6795L58.0786 21.0482L57.7391 19.4715V6.83212L57.9816 5.38686L59.6795 5.09781H65.2342L67.7325 5.54453L68.2177 2.73285L65.3797 2.36496ZM65.695 0C67.3283 0 68.8079 0.262774 70.1339 0.788321C71.4599 1.31387 72.5838 2.03212 73.5055 2.94307C74.4434 3.85401 75.163 4.92263 75.6643 6.14891C76.1656 7.35766 76.4162 8.64526 76.4162 10.0117V25.9883C76.4162 27.3547 76.1656 28.6511 75.6643 29.8774C75.163 31.0861 74.4434 32.146 73.5055 33.0569C72.5838 33.9679 71.4599 34.6861 70.1339 35.2117C68.8079 35.7372 67.3283 36 65.695 36H58.2242C56.5909 36 55.1113 35.7372 53.7853 35.2117C52.4593 34.6861 51.3274 33.9679 50.3895 33.0569C49.4678 32.146 48.7562 31.0861 48.2549 29.8774C47.7537 28.6511 47.503 27.3547 47.503 25.9883V10.0117C47.503 8.64526 47.7537 7.35766 48.2549 6.14891C48.7562 4.92263 49.4678 3.85401 50.3895 2.94307C51.3274 2.03212 52.4593 1.31387 53.7853 0.788321C55.1113 0.262774 56.5909 0 58.2242 0H65.695Z" fill="white"/>
<path d="M41.9435 0C43.5768 0 45.0564 0.262774 46.3824 0.788321C47.7084 1.31387 48.8322 2.03212 49.754 2.94307C50.6919 3.85401 51.4115 4.92263 51.9128 6.14891C52.4141 7.35766 52.6647 8.64526 52.6647 10.0117V25.9883C52.6647 27.3547 52.4141 28.6511 51.9128 29.8774C51.4115 31.0861 50.6919 32.146 49.754 33.0569C48.8322 33.9679 47.7084 34.6861 46.3824 35.2117C45.0564 35.7372 43.5768 36 41.9435 36H34.4727C32.8394 36 31.3598 35.7372 30.0338 35.2117C28.7078 34.6861 27.5759 33.9679 26.638 33.0569C25.7162 32.146 25.0047 31.0861 24.5034 29.8774C24.0022 28.6511 23.7515 27.3547 23.7515 25.9883V10.0117C23.7515 8.64526 24.0022 7.35766 24.5034 6.14891C25.0047 4.92263 25.7162 3.85401 26.638 2.94307C27.5759 2.03212 28.7078 1.31387 30.0338 0.788321C31.3598 0.262774 32.8394 0 34.4727 0H41.9435ZM46.9403 6.6219L46.6007 4.4146L45.0726 2.73285L42.5742 2.36496H36.0736L33.5995 2.73285L32.0471 4.4146L31.756 6.6219V19.8657L32.0471 22.1255L33.648 23.781L36.0736 24.0964H42.5742L45.0726 23.781L46.6007 22.1255L46.9403 19.8657V6.6219ZM44.0296 21.0482L42.4287 21.3109H36.2191L34.6425 21.0482L34.2786 19.4715V6.88467L34.5212 5.43942L36.2191 5.15037H42.4287L44.1266 5.43942L44.3691 6.98978V19.5766L44.0296 21.0482Z" fill="white"/>
<path d="M18.192 0C19.8253 0 21.3049 0.262774 22.6309 0.788321C23.9569 1.31387 25.0807 2.03212 26.0025 2.94307C26.9404 3.85401 27.66 4.92263 28.1613 6.14891C28.6625 7.35766 28.9132 8.64526 28.9132 10.0117V25.9883C28.9132 27.3547 28.6625 28.6511 28.1613 29.8774C27.66 31.0861 26.9404 32.146 26.0025 33.0569C25.0807 33.9679 23.9569 34.6861 22.6309 35.2117C21.3049 35.7372 19.8253 36 18.192 36H10.7212C9.08793 36 7.60831 35.7372 6.28231 35.2117C4.95632 34.6861 3.82437 33.9679 2.88647 33.0569C1.96474 32.146 1.25323 31.0861 0.751937 29.8774C0.250646 28.6511 0 27.3547 0 25.9883V10.0117C0 8.64526 0.250646 7.35766 0.751937 6.14891C1.25323 4.92263 1.96474 3.85401 2.88647 2.94307C3.82437 2.03212 4.95632 1.31387 6.28231 0.788321C7.60831 0.262774 9.08793 0 10.7212 0H18.192ZM22.7522 15.8715L22.4126 13.6117L20.8602 11.9562L18.3376 11.6672H12.9042L11.4246 11.3518C11.3437 11.054 11.2871 10.7912 11.2548 10.5635C11.2225 10.3182 11.1659 10.0642 11.085 9.80146V7.04234L11.4246 5.49197L13.0255 5.15037H19.1865L21.4666 5.64964L22.0487 2.7854L19.235 2.36496H12.8557L10.4301 2.73285L8.85345 4.4146L8.53812 6.6219V10.2219L8.85345 12.4292L10.4301 14.0847L12.8557 14.4263H18.3376L19.8172 14.6891C19.8657 14.9518 19.9223 15.1971 19.987 15.4248C20.0517 15.6526 20.1083 15.8891 20.1568 16.1343V19.5766C20.1244 19.8044 20.0678 20.0496 19.987 20.3124C19.9223 20.5752 19.8657 20.8204 19.8172 21.0482L18.2405 21.3109H12.225L9.84795 20.8905L9.24155 23.7285L12.0795 24.0964H18.3861L20.8602 23.781L22.4126 22.1255L22.7522 19.8657V15.8715Z" fill="white"/>
</svg>
